<svg id="Layer_1" data-name="Layer 1" xmlns="http://www.w3.org/2000/svg" viewBox="0 0 806.16 770"><defs><style>.cls-1{fill:#fff;}</style></defs><circle class="cls-1" cx="212.71" cy="557.29" r="212.71"/><path class="cls-1" d="M605.82,162a332.23,332.23,0,0,0-74.26,8.36c-2.48.57-5,1.19-7.46,1.81-1.64.4-3.28.83-4.89,1.27a1.9,1.9,0,0,1-.39.11c-1.19.34-2.38.66-3.55,1L510.38,176q-3.17,1-6.3,2c-.17.05-.34.09-.49.15-1.68.55-3.36,1.11-5,1.68-1.85.62-3.7,1.28-5.53,1.94-1.57.57-3.17,1.17-4.74,1.76l-1.89.73-.32.12c-1.49.58-3,1.15-4.43,1.77a2.48,2.48,0,0,0-.4.15l-.47.19a1,1,0,0,1-.28.11,331.18,331.18,0,0,0-100.8,64.79c-1,.93-2,1.87-3,2.83s-2,1.91-3,2.87l-.38.38c-1.88,1.87-3.73,3.74-5.58,5.64l-.25.27c-1.94,2-3.83,4-5.7,6.07q-2.14,2.33-4.26,4.72t-4.15,4.81c-1.82,2.14-3.61,4.31-5.4,6.5-3.53,4.43-7,8.92-10.29,13.51-.83,1.15-1.66,2.3-2.47,3.45A331.51,331.51,0,0,0,282.12,561c.39,1.85.79,3.68,1.19,5.51.54,2.33,1.09,4.67,1.68,7,.26,1.07.54,2.13.81,3.17s.53,2,.81,3c.53,1.92,1.06,3.83,1.62,5.73s1.12,3.8,1.7,5.68c.3,1,.62,2,.93,2.93.09.32.2.64.3.94s.19.63.3.93h0c.45,1.41.92,2.81,1.41,4.21a.08.08,0,0,0,0,.07c.46,1.38.95,2.76,1.44,4.15.56,1.59,1.15,3.17,1.75,4.74.15.4.3.79.44,1.19.62,1.6,1.24,3.19,1.88,4.79.08.25.19.51.27.74.79,1.92,1.56,3.81,2.36,5.7.51,1.23,1.05,2.47,1.6,3.7.34.81.7,1.6,1.06,2.41,1.32,2.93,2.68,5.87,4.09,8.78.7,1.45,1.42,2.91,2.14,4.34s1.45,2.89,2.2,4.32c.63,1.25,1.29,2.51,2,3.74s1.26,2.32,1.88,3.47q2.13,3.86,4.36,7.66c.72,1.21,1.44,2.42,2.17,3.63.48.81,1,1.64,1.51,2.47.34.55.68,1.09,1,1.64,1.44,2.32,2.91,4.61,4.42,6.89.74,1.13,1.51,2.28,2.28,3.4s1.53,2.24,2.31,3.36,1.6,2.32,2.43,3.47,1.64,2.28,2.49,3.41c1.66,2.27,3.36,4.53,5.08,6.76.85,1.11,1.72,2.21,2.6,3.32s1.76,2.19,2.63,3.27c1.79,2.19,3.6,4.34,5.43,6.49q4.11,4.79,8.42,9.44c1.92,2.07,3.85,4.09,5.81,6.11,1,1,2,2,3,3l2.87,2.85.12.11c1.49,1.46,3,2.89,4.49,4.31,1.66,1.58,3.34,3.11,5,4.62,1.47,1.34,3,2.64,4.45,3.93s3.19,2.75,4.81,4.11c1.06.89,2.14,1.79,3.21,2.66a.44.44,0,0,1,.1.08c1.07.88,2.15,1.75,3.24,2.6s2.12,1.68,3.19,2.49,2.15,1.66,3.21,2.46l1.32,1c1.53,1.13,3,2.26,4.59,3.36s3.07,2.22,4.64,3.3l.45.32c2.17,1.49,4.36,3,6.55,4.43,0,0,0,0,0,0,1.77,1.17,3.55,2.29,5.34,3.42s3.57,2.24,5.38,3.32l3.64,2.17c1.27.74,2.53,1.47,3.81,2.19s2.36,1.36,3.57,2,2.47,1.36,3.72,2q2.24,1.22,4.53,2.38c2,1.07,4.11,2.11,6.17,3.11,1.72.85,3.47,1.68,5.21,2.51a5.4,5.4,0,0,1,.49.23l4.91,2.24c.81.36,1.6.72,2.41,1.06,2.59,1.13,5.17,2.23,7.78,3.3.92.38,1.83.74,2.77,1.1s1.85.73,2.78,1.09c1.24.49,2.49,1,3.75,1.42l2.49.92c2.08.76,4.19,1.49,6.29,2.21.17.06.34.13.49.17,1.92.64,3.83,1.28,5.77,1.87a.3.3,0,0,0,.21.07l2.83.89c.93.3,1.87.6,2.83.87q2.89.87,5.83,1.66c.42.13.87.26,1.29.36,1.81.49,3.62,1,5.47,1.45l.15,0c1,.24,1.91.49,2.87.7,1.53.39,3.06.75,4.59,1.11a332.23,332.23,0,0,0,74.26,8.36c182.67,0,330.76-148.09,330.76-330.76S788.49,162,605.82,162ZM803.6,690.53a277.85,277.85,0,0,1-197.78,81.94,281.42,281.42,0,0,1-74.26-9.91,276.42,276.42,0,0,1-51-19.57c-.42-.21-.85-.43-1.27-.66-1.45-.72-2.89-1.47-4.32-2.23-.68-.34-1.34-.71-2-1.09-.28-.13-.53-.28-.81-.42-1.61-.88-3.21-1.77-4.78-2.68s-3.39-2-5-3c-1.22-.72-2.43-1.45-3.62-2.21l-.87-.56c-.83-.51-1.66-1-2.49-1.57-3-1.87-5.87-3.83-8.74-5.85-1.17-.79-2.32-1.6-3.47-2.45-.45-.29-.89-.61-1.32-.95-1.19-.83-2.34-1.71-3.51-2.58-.47-.34-1-.7-1.4-1.06l-1-.77c-.83-.59-1.64-1.23-2.43-1.87a5.89,5.89,0,0,1-.55-.44c-1.42-1.11-2.85-2.26-4.25-3.41-1.79-1.47-3.56-3-5.3-4.47-1.25-1.08-2.51-2.19-3.74-3.29l-.13-.13c-.89-.77-1.77-1.57-2.64-2.38-1.4-1.28-2.81-2.6-4.19-3.89-1.55-1.51-3.08-3-4.61-4.54-1.2-1.19-2.37-2.38-3.54-3.59-.17-.17-.34-.34-.51-.53l-1.27-1.34c-1-1.09-2-2.15-3-3.26h0c-.09-.1-.2-.19-.28-.29-.55-.62-1.13-1.24-1.66-1.85a1.75,1.75,0,0,1-.19-.2q-1.89-2.1-3.74-4.25c-1.24-1.43-2.45-2.87-3.66-4.32-.28-.34-.58-.68-.85-1s-.41-.49-.6-.74c-1.13-1.34-2.21-2.71-3.3-4.09-3.27-4.17-6.42-8.42-9.4-12.74-1-1.36-1.91-2.74-2.85-4.13-1.08-1.63-2.17-3.27-3.23-4.93-.45-.68-.87-1.36-1.32-2.06-.13-.2-.26-.41-.38-.62q-1.32-2.12-2.6-4.26c-1.17-1.93-2.32-3.91-3.44-5.89-.9-1.55-1.75-3.12-2.6-4.7-.42-.74-.83-1.49-1.21-2.25a2.48,2.48,0,0,1-.21-.39.06.06,0,0,1,0-.06c-.7-1.3-1.38-2.59-2-3.91-.89-1.77-1.76-3.53-2.59-5.3-.22-.4-.41-.81-.6-1.23s-.4-.81-.57-1.22c-.68-1.44-1.34-2.89-2-4.34-.58-1.25-1.13-2.51-1.64-3.78-.13-.24-.21-.49-.32-.72q-.86-2-1.68-4c-.59-1.45-1.19-2.9-1.74-4.37-.45-1.14-.9-2.31-1.32-3.46a275.4,275.4,0,0,1-13.55-50.5,282.31,282.31,0,0,1-4-47.39,277.56,277.56,0,0,1,74.81-190.37q3.48-3.76,7.13-7.41a280.07,280.07,0,0,1,56.34-43.64c2.81-1.66,5.62-3.28,8.49-4.83l2.34-1.24q2.23-1.2,4.47-2.31l.82-.43,1.56-.76c.68-.35,1.36-.69,2-1a5.46,5.46,0,0,1,.59-.3.57.57,0,0,1,.22-.11A274.72,274.72,0,0,1,531.56,223a283.23,283.23,0,0,1,145.33-.85.07.07,0,0,1,.06,0,275.27,275.27,0,0,1,70.3,29.21.19.19,0,0,1,.15.08l0,0c1,.54,2,1.13,3,1.75l.1.06c.56.32,1.11.66,1.66,1,1.77,1.07,3.53,2.17,5.28,3.34l.81.51c.89.58,1.78,1.15,2.66,1.75.44.3.89.59,1.31.89q2.17,1.47,4.34,3c1.66,1.15,3.28,2.34,4.92,3.53.53.41,1.06.81,1.59,1.19,1.45,1.09,2.89,2.19,4.32,3.32.19.15.38.3.57.43,1.49,1.17,3,2.34,4.41,3.55l.08.06c.39.3.77.62,1.15.94,1.51,1.23,3,2.49,4.47,3.76.23.19.44.39.64.58l.46.4c.94.79,1.88,1.62,2.79,2.45.17.17.36.32.53.49.64.55,1.28,1.12,1.9,1.7.91.83,1.82,1.68,2.72,2.53s2,1.91,3,2.91c.15.13.28.26.43.41,1,1,2,2,3,3,1.34,1.34,2.65,2.71,4,4.07l0,0c1,1.08,2.08,2.19,3.1,3.3a279.64,279.64,0,0,1-7.12,388.14Z" transform="translate(-130.42 -162)"/><path class="cls-1" d="M676.93,222.07l0,0a.07.07,0,0,1,.06,0A.07.07,0,0,0,676.93,222.07ZM480.51,236.81v5.72l1.56-.76c.68-.35,1.36-.69,2-1a5.46,5.46,0,0,1,.59-.3.57.57,0,0,1,.22-.11Zm23.08-58.71c-1.68.55-3.36,1.11-5,1.68-1.85.62-3.7,1.28-5.53,1.94-1.57.57-3.17,1.17-4.74,1.76l-1.89.73-.32.12c-1.49.58-3,1.15-4.43,1.77a2.48,2.48,0,0,0-.4.15l-.47.19L504.08,178C503.91,178,503.74,178,503.59,178.1Zm173.34,44,0,0a.07.07,0,0,1,.06,0A.07.07,0,0,0,676.93,222.07ZM480.34,302.39l.17.12v-.12ZM291.16,595c.11.32.19.63.3.93h0A8.53,8.53,0,0,1,291.16,595Zm64.94,24.1c.66,1.32,1.34,2.61,2,3.91h0C357.44,621.7,356.76,620.41,356.1,619.09Z" transform="translate(-130.42 -162)"/><path class="cls-1" d="M480.34,302.39l.17.12v-.12Zm.17-65.58v5.72l1.56-.76c.68-.35,1.36-.69,2-1a5.46,5.46,0,0,1,.59-.3.57.57,0,0,1,.22-.11Z" transform="translate(-130.42 -162)"/><polygon class="cls-1" points="350.1 140.39 350.1 140.51 349.93 140.39 350.1 140.39"/><path class="cls-1" d="M484.92,240.38a.57.57,0,0,0-.22.11c-1.4.64-2.78,1.34-4.19,2v-5.72Z" transform="translate(-130.42 -162)"/><path class="cls-1" d="M484.92,240.38a.57.57,0,0,0-.22.11c-1.4.64-2.78,1.34-4.19,2v-5.72Z" transform="translate(-130.42 -162)"/><path class="cls-1" d="M480.51,236.81v5.72l1.56-.76c.68-.35,1.36-.69,2-1a5.46,5.46,0,0,1,.59-.3.57.57,0,0,1,.22-.11Zm23.08-58.71c-1.68.55-3.36,1.11-5,1.68-1.85.62-3.7,1.28-5.53,1.94-1.57.57-3.17,1.17-4.74,1.76l-1.89.73-.32.12c-1.49.58-3,1.15-4.43,1.77a2.48,2.48,0,0,0-.4.15l-.47.19L504.08,178C503.91,178,503.74,178,503.59,178.1Z" transform="translate(-130.42 -162)"/><path class="cls-1" d="M936.32,479.3a329.8,329.8,0,0,0-6-51.05q-2.58-13.15-6.21-25.89a327.87,327.87,0,0,0-19.16-51.05H760a336.85,336.85,0,0,0-3.74-48.92H704.56A282.28,282.28,0,0,1,709,351.31H643v51.05h61.52q-2.35,13.11-5.94,25.89H594.12V479.3h84.55q-4.68,9.21-10.1,18.08H547.33v51h81.4l-1.68,1.72a279.19,279.19,0,0,1-95.49,62.73V667a330.48,330.48,0,0,0,126.37-75.62V819.44A326.82,326.82,0,0,0,709,807.1,331.42,331.42,0,0,0,892.63,657.61q7.75-13.44,14.26-27.65a331.44,331.44,0,0,0,18.37-51.05c2.68-10,4.92-20.15,6.64-30.48a334.07,334.07,0,0,0,4.66-51c0-1.54,0-3.09,0-4.62Q936.58,486,936.32,479.3Zm-180-76.94H870.68q4.3,12.74,7.43,25.89H751.29Q754.29,415.49,756.29,402.36ZM709,752.92V708.66h74.68A277.41,277.41,0,0,1,709,752.92Zm122.86-95.31H709V630H849.71A275.36,275.36,0,0,1,831.84,657.61Zm40.25-78.7H709V548.43H880A275.51,275.51,0,0,1,872.09,578.91Zm13.4-81.53H726.64q4.36-8.91,8.17-18.08h150.4q.31,6.69.32,13.46C885.53,494.31,885.51,495.84,885.49,497.38Z" transform="translate(-130.42 -162)"/><path class="cls-1" d="M503.59,178.1c-1.68.55-3.36,1.11-5,1.68-1.85.62-3.7,1.28-5.53,1.94-1.57.57-3.17,1.17-4.74,1.76l-1.89.73-.32.12c-1.49.58-3,1.15-4.43,1.77a2.48,2.48,0,0,0-.4.15l-.47.19L504.08,178C503.91,178,503.74,178,503.59,178.1Zm173.34,44,0,0a.07.07,0,0,1,.06,0A.07.07,0,0,0,676.93,222.07ZM424.19,769.26c1.77,1.17,3.55,2.29,5.34,3.42s3.57,2.24,5.38,3.32C431.29,773.81,427.72,771.55,424.19,769.26ZM291.16,595c.11.32.19.63.3.93h0A8.53,8.53,0,0,1,291.16,595Zm64.94,24.1c.66,1.32,1.34,2.61,2,3.91h0C357.44,621.7,356.76,620.41,356.1,619.09Zm18.78,110.46c1.49,1.46,3,2.89,4.49,4.31,1.66,1.58,3.34,3.11,5,4.62,1.47,1.34,3,2.64,4.45,3.93s3.19,2.75,4.81,4.11Q383.95,738.35,374.88,729.55ZM325,667.67c1.44,2.32,2.91,4.61,4.42,6.89.74,1.13,1.51,2.28,2.28,3.4s1.53,2.24,2.31,3.36Q329.39,674.63,325,667.67Z" transform="translate(-130.42 -162)"/><path class="cls-1" d="M561.45,302.39H810.72c-1-1.11-2.06-2.22-3.1-3.3l0,0c-1.32-1.36-2.63-2.73-4-4.07-1-1-2-2-3-3-.15-.15-.28-.28-.43-.41-1-1-2-1.95-3-2.91s-1.81-1.7-2.72-2.53c-.62-.58-1.26-1.13-1.9-1.7-.17-.17-.36-.32-.53-.49-.91-.83-1.85-1.66-2.79-2.45l-.46-.4c-.2-.19-.41-.39-.64-.58-1.47-1.27-3-2.53-4.47-3.76-.38-.32-.76-.64-1.15-.94l-.08-.06c-1.45-1.21-2.92-2.38-4.41-3.55-.19-.13-.38-.28-.57-.43-1.43-1.13-2.87-2.23-4.32-3.32-.53-.38-1.06-.78-1.59-1.19-1.64-1.19-3.26-2.38-4.92-3.53q-2.16-1.53-4.34-3c-.42-.3-.87-.59-1.31-.89-.88-.6-1.77-1.17-2.66-1.75l-.81-.51c-1.75-1.17-3.51-2.27-5.28-3.34-.55-.36-1.1-.7-1.66-1l-.1-.06c-1-.6-2-1.17-3-1.75l0,0a.19.19,0,0,0-.15-.08H531.56v-81c-2.48.57-5,1.19-7.46,1.81-1.64.4-3.28.83-4.89,1.27a1.9,1.9,0,0,1-.39.11c-1.19.34-2.38.66-3.55,1L510.38,176q-3.17,1-6.3,2l-23.29,8.49a1,1,0,0,1-.28.11v64.79H379.71c-1,.93-2,1.87-3,2.83s-2,1.91-3,2.87l-.38.38c-1.88,1.87-3.73,3.74-5.58,5.64l-.25.27c-1.94,2-3.83,4-5.7,6.07q-2.14,2.33-4.26,4.72t-4.15,4.81c-1.82,2.14-3.61,4.31-5.4,6.5-3.53,4.43-7,8.92-10.29,13.51-.83,1.15-1.66,2.3-2.47,3.45H474.9a277.66,277.66,0,0,1-81.83,190.33,280,280,0,0,1-63,47.43,276.45,276.45,0,0,1-48,20.85c.39,1.85.79,3.68,1.19,5.51.54,2.33,1.09,4.67,1.68,7,.26,1.07.54,2.13.81,3.17s.53,2,.81,3c.53,1.92,1.06,3.83,1.62,5.73s1.12,3.8,1.7,5.68c.3,1,.62,2,.93,2.93.09.32.2.64.3.94a8.53,8.53,0,0,0,.32.93c.45,1.41.92,2.81,1.41,4.21a.08.08,0,0,0,0,.07c.46,1.38.95,2.76,1.44,4.15.56,1.59,1.15,3.17,1.75,4.74.15.4.3.79.44,1.19.62,1.6,1.24,3.19,1.88,4.79.08.25.19.51.27.74.79,1.92,1.56,3.81,2.36,5.7.51,1.23,1.05,2.47,1.6,3.7.34.81.7,1.6,1.06,2.41,1.32,2.93,2.68,5.87,4.09,8.78.7,1.45,1.42,2.91,2.14,4.34s1.45,2.89,2.2,4.32c.63,1.25,1.29,2.51,2,3.74s1.26,2.32,1.88,3.47q2.13,3.86,4.36,7.66c.72,1.21,1.44,2.42,2.17,3.63.48.81,1,1.64,1.51,2.47.34.55.68,1.09,1,1.64q4.37,7,9,13.65c.79,1.17,1.6,2.32,2.43,3.47s1.64,2.28,2.49,3.41c1.66,2.27,3.36,4.53,5.08,6.76.85,1.11,1.72,2.21,2.6,3.32s1.76,2.19,2.63,3.27c1.79,2.19,3.6,4.34,5.43,6.49q4.11,4.79,8.42,9.44c1.92,2.07,3.85,4.09,5.81,6.11,1,1,2,2,3,3s1.91,1.89,2.87,2.85l.12.11q9.08,8.81,18.77,17c1.06.89,2.14,1.79,3.21,2.66a.44.44,0,0,1,.1.08c1.07.88,2.15,1.75,3.24,2.6s2.12,1.68,3.19,2.49,2.15,1.66,3.21,2.46l1.32,1c1.53,1.13,3,2.26,4.59,3.36s3.07,2.22,4.64,3.3l.45.32c2.17,1.49,4.36,3,6.55,4.43,0,0,0,0,0,0,3.53,2.29,7.1,4.55,10.72,6.74l3.64,2.17c1.27.74,2.53,1.47,3.81,2.19s2.36,1.36,3.57,2,2.47,1.36,3.72,2q2.24,1.22,4.53,2.38c2,1.07,4.11,2.11,6.17,3.11,1.72.85,3.47,1.68,5.21,2.51a5.4,5.4,0,0,1,.49.23l4.91,2.24c.81.36,1.6.72,2.41,1.06,2.59,1.13,5.17,2.23,7.78,3.3.92.38,1.83.74,2.77,1.1s1.85.73,2.78,1.09c1.24.49,2.49,1,3.75,1.42l2.49.92c2.08.76,4.19,1.49,6.29,2.21.17.06.34.13.49.17,1.92.64,3.83,1.28,5.77,1.87a.3.3,0,0,0,.21.07l2.83.89c.93.3,1.87.6,2.83.87q2.89.87,5.83,1.66c.42.13.87.26,1.29.36,1.81.49,3.62,1,5.47,1.45l.15,0c1,.24,1.91.49,2.87.7,1.53.39,3.06.75,4.59,1.11V343.89l29.53,23.9,46.24,37.46,32.14-39.67-46.62-37.75ZM480.51,743c-.42-.21-.85-.43-1.27-.66-1.45-.72-2.89-1.47-4.32-2.23-.66-.34-1.34-.71-2-1.09-.28-.13-.53-.28-.81-.42-1.61-.88-3.21-1.77-4.78-2.68s-3.39-1.94-5-3c-1.22-.72-2.43-1.45-3.62-2.21l-.87-.56c-.83-.51-1.66-1-2.49-1.57-3-1.87-5.87-3.83-8.74-5.85-1.17-.79-2.32-1.6-3.47-2.45-.45-.29-.89-.61-1.32-.95-1.19-.83-2.34-1.71-3.51-2.58-.47-.34-1-.7-1.4-1.06l-1-.77c-.81-.61-1.62-1.23-2.43-1.87a5.89,5.89,0,0,1-.55-.44c-1.45-1.11-2.85-2.26-4.25-3.41-1.79-1.47-3.56-3-5.3-4.47-1.28-1.08-2.51-2.19-3.74-3.29l-.13-.13c-.89-.79-1.77-1.57-2.64-2.38-1.4-1.28-2.81-2.6-4.19-3.89-1.55-1.51-3.08-3-4.61-4.54-1.2-1.19-2.37-2.38-3.54-3.59-.17-.17-.34-.34-.51-.53l-1.27-1.34c-1-1.09-2-2.15-3-3.26h0c-.09-.1-.2-.19-.28-.29-.55-.6-1.11-1.24-1.66-1.85a1.75,1.75,0,0,1-.19-.2q-1.89-2.1-3.74-4.25c-1.24-1.43-2.47-2.87-3.66-4.32-.28-.34-.58-.68-.85-1s-.41-.49-.6-.74c-1.13-1.34-2.21-2.71-3.3-4.09-3.27-4.17-6.42-8.42-9.4-12.74-1-1.36-1.91-2.74-2.85-4.13-1.08-1.63-2.17-3.27-3.23-4.93-.45-.68-.87-1.36-1.32-2.06-.13-.2-.26-.41-.38-.62q-1.32-2.12-2.6-4.26c-1.17-1.93-2.32-3.91-3.44-5.89q-1.35-2.32-2.6-4.7c-.42-.74-.83-1.49-1.21-2.25a2.48,2.48,0,0,1-.21-.39.06.06,0,0,1,0-.06h0c-.68-1.3-1.36-2.59-2-3.91-.89-1.77-1.76-3.53-2.59-5.3-.22-.4-.41-.81-.6-1.23s-.38-.81-.57-1.22c-.68-1.44-1.34-2.89-2-4.34-.56-1.25-1.11-2.53-1.64-3.78-.13-.24-.21-.49-.32-.72q-.86-2-1.68-4c-.59-1.45-1.17-2.9-1.74-4.37-.45-1.14-.9-2.31-1.32-3.46A332.22,332.22,0,0,0,480.51,462.56Zm0-440.48-.17-.12h.17Z" transform="translate(-130.42 -162)"/></svg>